PathFileType	4	(X/Y/Z)	Kaydara	
DataRate	CameraRate	NumFrames	NumMarkers	Units	OrigDataRate	OrigDataStartFrame	OrigNumFrames	
120.00	120.00	4	72	mm	120.00	196	261	
Frame#	Time	Hips			RightUpLeg			RightLeg			RightFoot			RightFoot_End			LeftUpLeg			LeftLeg			LeftFoot			LeftFoot_End			Spine			Spine1			Spine2			Spine3			Neck			Head			Head_End			RightShoulder			RightArm			RightForeArm			RightHand			RightHandThumb1			RightHandThumb2			RightHandThumb3			RightHandThumb3_End			RightInHandIndex			RightHandIndex1			RightHandIndex2			RightHandIndex3			RightHandIndex3_End			RightInHandMiddle			RightHandMiddle1			RightHandMiddle2			RightHandMiddle3			RightHandMiddle3_End			RightInHandRing			RightHandRing1			RightHandRing2			RightHandRing3			RightHandRing3_End			RightInHandPinky			RightHandPinky1			RightHandPinky2			RightHandPinky3			RightHandPinky3_End			LeftShoulder			LeftArm			LeftForeArm			LeftHand			LeftHandThumb1			LeftHandThumb2			LeftHandThumb3			LeftHandThumb3_End			LeftInHandIndex			LeftHandIndex1			LeftHandIndex2			LeftHandIndex3			LeftHandIndex3_End			LeftInHandMiddle			LeftHandMiddle1			LeftHandMiddle2			LeftHandMiddle3			LeftHandMiddle3_End			LeftInHandRing			LeftHandRing1			LeftHandRing2			LeftHandRing3			LeftHandRing3_End			LeftInHandPinky			LeftHandPinky1			LeftHandPinky2			LeftHandPinky3			LeftHandPinky3_End			
		X1	Y1	Z1	X2	Y2	Z2	X3	Y3	Z3	X4	Y4	Z4	X5	Y5	Z5	X6	Y6	Z6	X7	Y7	Z7	X8	Y8	Z8	X9	Y9	Z9	X10	Y10	Z10	X11	Y11	Z11	X12	Y12	Z12	X13	Y13	Z13	X14	Y14	Z14	X15	Y15	Z15	X16	Y16	Z16	X17	Y17	Z17	X18	Y18	Z18	X19	Y19	Z19	X20	Y20	Z20	X21	Y21	Z21	X22	Y22	Z22	X23	Y23	Z23	X24	Y24	Z24	X25	Y25	Z25	X26	Y26	Z26	X27	Y27	Z27	X28	Y28	Z28	X29	Y29	Z29	X30	Y30	Z30	X31	Y31	Z31	X32	Y32	Z32	X33	Y33	Z33	X34	Y34	Z34	X35	Y35	Z35	X36	Y36	Z36	X37	Y37	Z37	X38	Y38	Z38	X39	Y39	Z39	X40	Y40	Z40	X41	Y41	Z41	X42	Y42	Z42	X43	Y43	Z43	X44	Y44	Z44	X45	Y45	Z45	X46	Y46	Z46	X47	Y47	Z47	X48	Y48	Z48	X49	Y49	Z49	X50	Y50	Z50	X51	Y51	Z51	X52	Y52	Z52	X53	Y53	Z53	X54	Y54	Z54	X55	Y55	Z55	X56	Y56	Z56	X57	Y57	Z57	X58	Y58	Z58	X59	Y59	Z59	X60	Y60	Z60	X61	Y61	Z61	X62	Y62	Z62	X63	Y63	Z63	X64	Y64	Z64	X65	Y65	Z65	X66	Y66	Z66	X67	Y67	Z67	X68	Y68	Z68	X69	Y69	Z69	X70	Y70	Z70	X71	Y71	Z71	X72	Y72	Z72	

196	1.625	7081.203	893.81699	129.612	7105.288792151554	864.6927378033845	78.37206004561325	7019.183104452675	459.0984424570454	46.009242411387355	7102.05273568112	118.91687826924262	-70.5251909537428	7027.659773383101	21.940418744311373	68.1615709466005	7067.892136914496	896.293218972843	194.94420592025122	6958.210298549334	507.0377015791931	301.0081543785207	6847.465311209904	92.12351771566142	387.82907169700087	6704.761646844596	25.848323575896032	282.1907605203066	7037.181887082915	1016.7489722404957	71.90026603115406	6985.443395876989	1083.6004411470237	24.23685918023471	6927.021708709341	1148.2815349896493	-26.845211634849214	6864.817246065402	1202.0746178235897	-77.96974647676548	6797.247666023052	1260.2339091180881	-130.643106169078	6730.739594198123	1310.0980935843456	-173.36068440103236	6591.609148139152	1386.9503993782448	-179.4426687897392	6824.652034682528	1235.2437668561201	-125.29819717182696	6839.895848540295	1213.837829888019	-157.03097961979378	6915.879559024579	1088.5573073740231	-103.65312403377222	6937.489984862974	1014.1887283289541	-93.8996738311206	6943.527066442122	1030.57633857069	-99.10955832520042	6945.33171659604	1033.5946712153186	-105.20971130484044	6946.734353760527	1032.305092608576	-108.45463837853829	6948.0284645245965	1028.3286487364635	-110.30156550479438	6945.200473144967	1020.3738352988856	-95.63486510764652	6954.941491924116	1015.2903175296323	-96.1094985538266	6958.533601289777	1009.3397194254954	-98.34364077508927	6958.142941014615	1007.4729305730144	-101.558009746437	6956.049705071177	1007.1639989830437	-105.4498333477321	6945.106724268328	1011.2116234808244	-92.98024133017302	6954.558021331085	1001.2981567675623	-92.00675525312201	6958.429779764012	993.6094119846526	-94.09521553378471	6957.9354461245575	990.7835403705388	-97.80555620756219	6955.633877509139	990.1666362056986	-101.98240371753218	6944.827163668451	1004.869562830814	-91.06684395829508	6953.1578663238515	990.483607032043	-88.4579672316637	6956.4682153213835	982.5757984791196	-89.9229389564278	6955.957242046699	979.2094248022977	-93.31315712905811	6953.777002014376	978.3258187511458	-97.15102701135686	6943.9450673533765	997.696877486831	-89.05100252623225	6951.163552914535	980.0830161742277	-85.3289957626096	6953.677465008695	971.9315401410403	-85.95929307230773	6953.2385386557835	968.596088973912	-88.16956269858497	6951.269091773036	967.3069053989863	-91.41818009628949	6814.477161851761	1245.8869784053788	-100.51324895919086	6804.624847191818	1241.9963962420597	-58.42178281841346	6889.2593925684205	1113.5772823843738	-47.638790053620184	6942.674507660509	1026.4727389731574	-52.20791359475325	6945.124814881808	1043.3760912051239	-59.08858953273657	6953.194992982698	1045.155463501875	-56.60123385624705	6959.79322781529	1043.012381664276	-53.50947409747013	6966.130681241186	1038.3323713161915	-49.76893473835396	6948.67607877958	1033.4469247845957	-55.44392720847846	6962.256016257432	1028.7694623284501	-52.75781704241968	6972.667760808822	1022.0724029935681	-47.69578662332893	6977.817922575431	1019.1376077990398	-44.11213295672744	6981.188431292987	1017.5373183822772	-40.85144837274618	6950.909558299153	1024.2469882210237	-51.68786518189802	6965.362836094774	1014.7094628553584	-47.03716757847105	6976.97597646554	1006.198599970081	-41.022607695967984	6983.310310016926	1002.0805793373671	-36.46350067828737	6987.057007915566	1000.0489257018963	-32.7812059049494	6952.140306584895	1017.8785026572808	-49.12574860880422	6966.159759372378	1003.8375136736238	-42.80097839405726	6976.5164666641485	995.2046845496645	-37.064010963563035	6982.751044663184	990.587439657214	-32.40370017493004	6986.332932378256	988.3714820056059	-28.81693261462093	6953.170632283189	1010.580170148449	-46.06942739008774	6966.666534815091	993.2409145036024	-38.460473841292306	6975.264749577885	984.4940949297604	-33.122219586545064	6979.959790934691	980.2391028216917	-29.362924454343997	6983.2176565474965	977.7655589224206	-25.978421006619577
197	1.633	7081.203	893.81699	129.612	7104.279484118031	864.1647313341928	78.10391235815753	7018.774200378682	458.47986262872325	45.81931323795348	7102.784710435803	119.01821161185649	-72.33178003565342	7028.981605827805	21.60672449050235	66.31247414149341	7068.898058178991	896.8160763918053	195.2049678592634	6959.152912147336	507.5169951267915	301.0252705508111	6848.563391321895	92.18478620855355	386.4482970682129	6705.882409210809	25.510337312586316	281.02367752580705	7037.314908134402	1016.775062968243	71.852406549227	6985.598062503479	1083.6805880283744	24.24364388229011	6927.184245011871	1148.428702735845	-26.75702786918523	6864.955036787485	1202.297576152113	-77.75890069820028	6797.373051783478	1260.5317736311642	-130.32106764985394	6730.957711774798	1310.5426251861634	-173.00872935212595	6591.831262276991	1387.4020926746255	-178.94587799209123	6824.480353350613	1235.1650705502336	-124.99904524023722	6838.482189153651	1212.4184032059557	-156.28846257142757	6913.608812615984	1088.2332833050973	-100.25607425477237	6932.315051606438	1013.5033320884718	-88.0662466483366	6938.202786716393	1029.713782688695	-93.04854332896561	6939.968037455547	1032.6135041637608	-98.66925453904541	6941.324902840946	1031.253770695629	-101.55732930322289	6942.565171417289	1027.2294889391248	-103.0871147349844	6939.776183455473	1019.5348722903815	-89.48404131291707	6949.157269197348	1014.2834753284719	-89.33031967734468	6952.608857508038	1008.2415206594518	-91.05555965578414	6952.23405515813	1006.3348049384809	-93.98169542182931	6950.223569703659	1006.0042048785472	-97.65393734510545	6939.650323211417	1010.4135653374802	-86.78541130345003	6948.73315201955	1000.3584724840852	-85.17526400684787	6952.448641832722	992.5760131880961	-86.70455292068868	6951.972033424987	989.7048379313744	-90.06529970839499	6949.760325082229	989.0656181415868	-94.00098520137159	6939.355952913894	1004.1044773106407	-84.85741028079107	6947.339751722958	989.6196024453059	-81.66660384068213	6950.511494611378	981.636443223999	-82.6412549491419	6950.016343435257	978.2297328706006	-85.69269833858024	6947.919990492254	977.3267378276081	-89.30307416461245	6938.477518953088	996.9763180083797	-82.83937973533978	6945.37557909427	979.2984176906614	-78.5835951219289	6947.776275906919	971.0969139395086	-78.8192021467533	6947.347814134576	967.7370285199953	-80.78137167599357	6945.452058276555	966.433539833989	-83.82789293302105	6814.90471310742	1246.5246885744125	-100.22277809310957	6806.088910442339	1244.1556252867783	-57.96435658004789	6888.700504601923	1114.4878439810298	-44.95015909467638	6939.3336106572	1026.1948876089107	-47.657979490605804	6941.521233762234	1042.9156394265137	-54.536267747816154	6949.215585635625	1044.5541388878996	-52.20511303368836	6955.538676546211	1042.3218695128787	-49.194451597885525	6961.635275216747	1037.5751350855355	-45.49784080466278	6945.0022741146495	1032.9972710602096	-50.76591725431467	6958.0150847345685	1028.1094211633051	-47.89507004664644	6968.0215930194045	1021.2895160388607	-42.844661947393156	6972.9689542997085	1018.3003437201395	-39.38206240674833	6976.204748048871	1016.6698833781381	-36.29835515183965	6947.218494224564	1023.8300281750323	-46.947662830080375	6961.1092809248685	1014.1049745365689	-42.083098384669604	6972.279776936181	1005.4650881929017	-36.073788936276294	6978.36922294439	1001.2838753089206	-31.657163237671092	6981.968413181807	999.220381681494	-28.16678027131885	6948.451427669866	1017.4897866370193	-44.34468039962147	6961.968400284826	1003.3046007450309	-37.78796686343321	6971.939723685405	994.564749082328	-32.04833483374177	6977.938314827926	989.8894365040602	-27.521613557311355	6981.3816156263665	987.644908990332	-24.11346945297695	6949.501436569494	1010.2318574743597	-41.25953910708921	6962.548105941971	992.7844380896032	-33.414514687581864	6970.840576959977	983.9610282388334	-28.063853741744445	6975.364870800137	979.6680877986425	-24.397029964770923	6978.500766408907	977.1717716880279	-21.16789792711608
198	1.642	7081.203	893.81699	129.612	7103.269133705612	863.6373100140049	77.83624640612524	7018.368776801615	457.86159398277766	45.625501129721656	7103.513722810353	119.1199320431287	-74.14390650148903	7030.301055940062	21.272724415650774	64.45718646074855	7069.905273142805	897.3384038200358	195.46510432857173	6960.096052387038	507.99552322595156	301.04028118672625	6849.6616551236475	92.24530914173774	385.0645636523583	6707.003390672697	25.170360020817053	279.85444596675376	7037.446804584047	1016.8008359245376	71.80506074225919	6985.750816330513	1083.7600576026193	24.25150751780869	6927.344020622039	1148.5747465929715	-26.667094330545684	6865.08919464931	1202.5188436056974	-77.54548172731806	6797.493906649075	1260.8273650400142	-129.99560073837074	6731.170842160617	1310.9845739991592	-172.65280509790526	6592.048500529677	1387.8514722441646	-178.44396225902463	6824.303858646075	1235.0840631672158	-124.69651656497962	6837.06076089602	1210.9950534637417	-155.54124397684507	6911.331588990088	1087.9091346386626	-96.84997176713266	6927.130363006754	1012.817460136618	-82.21254207968795	6932.8680629611035	1028.849475454605	-86.96680472757207	6934.593741902006	1031.6292272040548	-92.10603424869826	6935.904745607258	1030.1985207106015	-94.63567056692888	6937.091122838632	1026.125828445747	-95.8468503987383	6934.3414399344165	1018.6945306460372	-83.31195533175367	6943.361873804497	1013.2742141705895	-82.52734476508877	6946.672732912955	1007.1400126119462	-83.74140766819069	6946.31385063434	1005.1927017023032	-86.37794665229401	6944.3862963149595	1004.8398025636251	-89.82951245519271	6934.1835892195995	1009.6145048204223	-80.56893273709923	6942.897313953135	999.4169746963687	-78.31944394761763	6946.456326664815	991.5398821798935	-79.28703580147564	6945.997527415454	988.6226223203389	-82.29652277269307	6943.875881355532	987.9604092256632	-85.98983860632087	6933.874510069687	1003.3386841116939	-78.62612337241224	6941.510914232173	988.7544258450362	-74.85081802734469	6944.543889393082	980.695170440066	-75.3329069423545	6944.064651941351	977.2473994437993	-78.04394729210567	6942.05238108526	976.3243921189195	-81.42568346419966	6932.9998984560125	996.2554023775954	-76.60571278430895	6939.57717165119	978.5132613285792	-71.8136874538136	6941.864557276209	970.2612210563825	-71.65275772385779	6941.446643127954	966.8764159754023	-73.36561458816722	6939.624760360355	965.5580945931589	-76.20901055423923	6815.328641326428	1247.1605680520684	-99.92936871892336	6807.552669390972	1246.3142421834934	-57.50502164283462	6888.142430870771	1115.3979756340602	-42.25356745228257	6935.989281035274	1025.9176763873795	-43.0937682687757	6937.913273816162	1042.4555112570704	-49.970030626371695	6945.230748335677	1043.9535471173454	-47.79578160233196	6951.278004432345	1041.632457007999	-44.8665641577628	6957.133207550958	1036.8193742779836	-41.21404596554947	6941.3241594204665	1032.5481543804553	-46.07342432849455	6953.768619057662	1027.4502829526577	-43.01733665992434	6963.368995221765	1020.5080580160381	-37.97863143648848	6968.113036418782	1017.4648894754173	-34.63752988121805	6971.213710327651	1015.8046098399461	-31.7314329540001	6943.523272455365	1023.4138278511127	-42.19262084807857	6956.850456495822	1013.5017232064004	-37.11350550093896	6967.577354608792	1004.7334158840574	-31.109489499714513	6973.421297724494	1000.4894839864289	-26.83585908086974	6976.872542899379	998.3945417723393	-23.538070065351647	6944.758530393686	1017.1019761758333	-39.548528003501296	6957.772148985186	1002.773141414978	-32.75902992948921	6967.357283679738	993.9268207735008	-27.01672604783912	6973.119308375554	989.1939120855121	-22.624066279222525	6976.4236176068825	986.9211898859262	-19.395175758882417	6945.828414832341	1009.8846247607933	-36.4343420842768	6958.425169317458	992.3296447249772	-28.352318437184838	6966.411296952513	983.4301298566645	-22.98917889656477	6970.764442205433	979.0996053660148	-19.41513877742412	6973.778021835558	976.5808610784004	-16.34191794015242
199	1.65	7081.203	893.81699	129.612	7102.258044996073	863.1106177983195	77.56913266203527	7017.966914526033	457.24381179842936	45.42789098526168	7104.239599879637	119.22200336622765	-75.96100046130793	7031.617771180983	20.93851545273659	62.59629529771566	7070.913476157762	897.8600584112031	195.7245488018144	6961.039446443451	508.4731583605796	301.0532125549957	6850.759796164669	92.30507415361697	383.67830192602025	6708.124281498609	24.828502987824415	278.6834237622421	7037.577549434037	1016.8262866173993	71.75823572601149	6985.901632904212	1083.8388332162588	24.260434587869167	6927.501018311408	1148.7196348412979	-26.575457954087597	6865.219719294074	1202.7383719210638	-77.32958129304748	6797.610243993481	1261.1206190667742	-129.66683917867738	6731.378977539858	1311.4238367823684	-172.29306085986875	6592.260854052061	1388.2984317670264	-177.93712755644052	6824.122653866571	1235.000787864787	-124.39073922761085	6835.632061856599	1209.5682175962277	-154.7896020345732	6909.048608687325	1087.5849253786796	-93.43590300934314	6921.93750149426	1012.1312766586428	-76.34047562014527	6927.524526819643	1027.9836415188217	-80.8663320583924	6929.210469985271	1030.64211154042	-85.5222003547991	6930.475532796447	1029.1396418688475	-87.69193172161351	6931.607982569395	1025.0179860516278	-88.58314857144025	6928.897902883265	1017.8530257061881	-77.12062731043873	6937.5570734507	1012.2628071207814	-75.70280347678967	6940.727033531599	1006.0355034587228	-76.40358509156856	6940.384125032839	1004.0469472037234	-78.74926068911955	6938.539653749126	1003.671130939316	-81.97913005335471	6928.708190269574	1008.8146430287359	-74.3328412597261	6937.052284028769	998.4739131045562	-71.44154342447167	6940.454653592937	990.50130490055	-71.8451000992915	6940.013737545975	987.5372003969047	-74.50177898581558	6937.9823244705185	986.8513295787502	-77.95159894813736	6928.384506217073	1002.5723728326199	-72.37502429516316	6935.673126478939	987.8883005025114	-68.01284574671733	6938.567209737261	979.7522327903836	-68.0002954730255	6938.103968345371	976.2626961970509	-70.36941860080947	6936.175945250603	975.3190652167434	-73.5214463610715	6927.513874079487	995.5343049977384	-70.3520441755383	6933.770091627909	977.72774314055	-65.02149443952052	6935.944100408184	969.4246775078741	-64.46231413022969	6935.536810279657	966.0144794958293	-65.92472938115999	6933.788956766584	964.6808073937798	-68.56403921137023	6815.7488613520445	1247.7944517229446	-99.63313813695268	6809.015699434686	1248.4716321295548	-57.04392022792455	6887.585317599348	1116.3073960049387	-39.54987508319277	6932.642512759705	1025.64114386636	-38.51675116566574	6934.302016399782	1041.9957973019739	-45.39135099389483	6941.241685578886	1043.3538139539737	-43.37466296189269	6947.012505036977	1040.9442913397593	-40.52720979083307	6952.6258488925105	1036.065251329766	-36.91893480003253	6937.642835068193	1032.0996607472366	-41.36796229100301	6949.517898309018	1026.7921880043411	-38.126192559941316	6958.711375553843	1019.7281985642487	-33.09926836424024	6963.251643313124	1016.631426572562	-29.880070070381507	6966.216837901129	1014.9416848044237	-27.152159516485376	6939.824996375387	1022.998462641389	-37.424273356654446	6952.5876421291605	1012.899831488925	-32.129994315188554	6962.870129453966	1004.0037360872612	-26.131314566999407	6968.468034162342	999.6975719711518	-22.001147998490005	6971.770946498565	997.5715782553061	-18.89657332432425	6941.062715717817	1016.7151378609473	-34.738838810541424	6953.5722620354645	1002.2432371811312	-27.71579192885653	6962.770525341825	993.2910259377134	-21.970811113201652	6968.295480764441	988.5010048922095	-17.712642314232667	6971.460440323164	986.2004680962121	-14.663578033863836	6942.152659988245	1009.538526269178	-31.595393018965122	6954.298955704193	991.8766133669706	-23.27551990721807	6961.97823672495	982.9014958125892	-17.899834935161138	6966.159887638173	978.5337590798399	-14.41886136240366	6969.050846158679	975.9929342222497	-11.50204153166052
